<mxfile host="app.diagrams.net" modified="2024-05-17T14:41:52.134Z" agent="Mozilla/5.0 (Windows NT 10.0; Win64; x64) AppleWebKit/537.36 (KHTML, like Gecko) Chrome/124.0.0.0 Safari/537.36" etag="ke0NhgqbD5xo16oxlrvY" version="24.4.4" type="github">
  <diagram name="Page-1" id="RzaWLG_ZGDEWVciL77PO">
    <mxGraphModel dx="2074" dy="738" grid="1" gridSize="10" guides="1" tooltips="1" connect="1" arrows="1" fold="1" page="1" pageScale="1" pageWidth="850" pageHeight="1100" math="0" shadow="0">
      <root>
        <mxCell id="0" />
        <mxCell id="1" parent="0" />
        <mxCell id="nxw-yRaq5ZzcP2rATH0o-4" value="" style="edgeStyle=orthogonalEdgeStyle;rounded=0;orthogonalLoop=1;jettySize=auto;html=1;" edge="1" parent="1">
          <mxGeometry relative="1" as="geometry">
            <mxPoint x="400" y="254" as="sourcePoint" />
            <mxPoint x="230" y="354" as="targetPoint" />
            <Array as="points">
              <mxPoint x="400" y="314" />
              <mxPoint x="230" y="314" />
            </Array>
          </mxGeometry>
        </mxCell>
        <mxCell id="nxw-yRaq5ZzcP2rATH0o-6" value="" style="edgeStyle=orthogonalEdgeStyle;rounded=0;orthogonalLoop=1;jettySize=auto;html=1;" edge="1" parent="1" source="nxw-yRaq5ZzcP2rATH0o-1" target="nxw-yRaq5ZzcP2rATH0o-5">
          <mxGeometry relative="1" as="geometry" />
        </mxCell>
        <mxCell id="nxw-yRaq5ZzcP2rATH0o-8" value="" style="edgeStyle=orthogonalEdgeStyle;rounded=0;orthogonalLoop=1;jettySize=auto;html=1;" edge="1" parent="1">
          <mxGeometry relative="1" as="geometry">
            <mxPoint x="400" y="254" as="sourcePoint" />
            <mxPoint x="560" y="384" as="targetPoint" />
            <Array as="points">
              <mxPoint x="400" y="314" />
              <mxPoint x="560" y="314" />
            </Array>
          </mxGeometry>
        </mxCell>
        <mxCell id="nxw-yRaq5ZzcP2rATH0o-1" value="HOME" style="whiteSpace=wrap;html=1;aspect=fixed;" vertex="1" parent="1">
          <mxGeometry x="360" y="170" width="80" height="80" as="geometry" />
        </mxCell>
        <mxCell id="nxw-yRaq5ZzcP2rATH0o-2" value="SOBRE" style="whiteSpace=wrap;html=1;aspect=fixed;" vertex="1" parent="1">
          <mxGeometry x="190" y="350" width="80" height="80" as="geometry" />
        </mxCell>
        <mxCell id="nxw-yRaq5ZzcP2rATH0o-5" value="CONTATO" style="whiteSpace=wrap;html=1;aspect=fixed;" vertex="1" parent="1">
          <mxGeometry x="360" y="350" width="80" height="80" as="geometry" />
        </mxCell>
        <mxCell id="nxw-yRaq5ZzcP2rATH0o-7" value="LOGIN" style="whiteSpace=wrap;html=1;aspect=fixed;" vertex="1" parent="1">
          <mxGeometry x="530" y="350" width="80" height="80" as="geometry" />
        </mxCell>
        <mxCell id="nxw-yRaq5ZzcP2rATH0o-9" value="&lt;div&gt;HTML: header, nav, div, button, footer&lt;br&gt;CSS: background, color, flex, img&lt;br&gt;JS: array.forEach para listar produtos e fazer busca de produtos; script de acessibilidade&lt;/div&gt;" style="text;html=1;align=center;verticalAlign=middle;whiteSpace=wrap;rounded=0;" vertex="1" parent="1">
          <mxGeometry x="500" y="175" width="230" height="70" as="geometry" />
        </mxCell>
        <mxCell id="nxw-yRaq5ZzcP2rATH0o-12" value="" style="endArrow=none;dashed=1;html=1;dashPattern=1 3;strokeWidth=2;rounded=0;exitX=1;exitY=0.5;exitDx=0;exitDy=0;entryX=0;entryY=0.5;entryDx=0;entryDy=0;" edge="1" parent="1" source="nxw-yRaq5ZzcP2rATH0o-1" target="nxw-yRaq5ZzcP2rATH0o-9">
          <mxGeometry width="50" height="50" relative="1" as="geometry">
            <mxPoint x="510" y="250" as="sourcePoint" />
            <mxPoint x="560" y="200" as="targetPoint" />
          </mxGeometry>
        </mxCell>
        <mxCell id="nxw-yRaq5ZzcP2rATH0o-13" value="HTML: header, nav, div, button, footer&lt;div&gt;CSS: background, color, img, flex, margin&lt;/div&gt;" style="text;html=1;align=center;verticalAlign=middle;whiteSpace=wrap;rounded=0;" vertex="1" parent="1">
          <mxGeometry x="10" y="430" width="190" height="80" as="geometry" />
        </mxCell>
        <mxCell id="nxw-yRaq5ZzcP2rATH0o-14" value="" style="endArrow=none;dashed=1;html=1;dashPattern=1 3;strokeWidth=2;rounded=0;exitX=0;exitY=0.5;exitDx=0;exitDy=0;entryX=0.5;entryY=0;entryDx=0;entryDy=0;" edge="1" parent="1" source="nxw-yRaq5ZzcP2rATH0o-2" target="nxw-yRaq5ZzcP2rATH0o-13">
          <mxGeometry width="50" height="50" relative="1" as="geometry">
            <mxPoint x="400" y="310" as="sourcePoint" />
            <mxPoint x="280" y="470" as="targetPoint" />
            <Array as="points">
              <mxPoint x="105" y="390" />
            </Array>
          </mxGeometry>
        </mxCell>
        <mxCell id="nxw-yRaq5ZzcP2rATH0o-15" value="HTML: header, nav, div, button, form,&amp;nbsp; footer&lt;div&gt;CSS: background, color, img, flex, margin, border&lt;/div&gt;" style="text;html=1;align=center;verticalAlign=middle;whiteSpace=wrap;rounded=0;" vertex="1" parent="1">
          <mxGeometry x="295" y="480" width="210" height="70" as="geometry" />
        </mxCell>
        <mxCell id="nxw-yRaq5ZzcP2rATH0o-16" value="HTML: header, nav, div, button, form,&amp;nbsp; footer&lt;div&gt;CSS: background, color, img, flex, margin, border&lt;/div&gt;" style="text;html=1;align=center;verticalAlign=middle;whiteSpace=wrap;rounded=0;" vertex="1" parent="1">
          <mxGeometry x="640" y="430" width="170" height="70" as="geometry" />
        </mxCell>
        <mxCell id="nxw-yRaq5ZzcP2rATH0o-17" value="" style="endArrow=none;dashed=1;html=1;dashPattern=1 3;strokeWidth=2;rounded=0;entryX=0.5;entryY=1;entryDx=0;entryDy=0;exitX=0.5;exitY=0;exitDx=0;exitDy=0;" edge="1" parent="1" source="nxw-yRaq5ZzcP2rATH0o-15" target="nxw-yRaq5ZzcP2rATH0o-5">
          <mxGeometry width="50" height="50" relative="1" as="geometry">
            <mxPoint x="440" y="500" as="sourcePoint" />
            <mxPoint x="450" y="260" as="targetPoint" />
          </mxGeometry>
        </mxCell>
        <mxCell id="nxw-yRaq5ZzcP2rATH0o-20" value="" style="endArrow=none;dashed=1;html=1;dashPattern=1 3;strokeWidth=2;rounded=0;entryX=1;entryY=0.5;entryDx=0;entryDy=0;exitX=0.5;exitY=0;exitDx=0;exitDy=0;" edge="1" parent="1" source="nxw-yRaq5ZzcP2rATH0o-16" target="nxw-yRaq5ZzcP2rATH0o-7">
          <mxGeometry width="50" height="50" relative="1" as="geometry">
            <mxPoint x="400" y="310" as="sourcePoint" />
            <mxPoint x="450" y="260" as="targetPoint" />
            <Array as="points">
              <mxPoint x="725" y="390" />
            </Array>
          </mxGeometry>
        </mxCell>
      </root>
    </mxGraphModel>
  </diagram>
</mxfile>
